<?xml version="1.0" encoding="UTF-8"?>
<!DOCTYPE svg PUBLIC "-//W3C//DTD SVG 1.1//EN" "http://www.w3.org/Graphics/SVG/1.1/DTD/svg11.dtd">
<svg xmlns="http://www.w3.org/2000/svg" version="1.1" width="860px" height="887px" style="shape-rendering:geometricPrecision; text-rendering:geometricPrecision; image-rendering:optimizeQuality; fill-rule:evenodd; clip-rule:evenodd" xmlns:xlink="http://www.w3.org/1999/xlink">
<g><path style="opacity:1" fill="#f6f6f6" d="M -0.5,-0.5 C 286.167,-0.5 572.833,-0.5 859.5,-0.5C 859.5,295.167 859.5,590.833 859.5,886.5C 572.833,886.5 286.167,886.5 -0.5,886.5C -0.5,590.833 -0.5,295.167 -0.5,-0.5 Z"/></g>
<g><path style="opacity:1" fill="#010101" d="M 615.5,311.5 C 616.302,323.148 616.635,334.815 616.5,346.5C 614.695,365.19 610.695,383.524 604.5,401.5C 659.164,402.333 713.83,402.833 768.5,403C 789.401,406.192 805.901,416.359 818,433.5C 826.605,446.539 830.105,460.872 828.5,476.5C 827.028,480.919 826.362,485.586 826.5,490.5C 823.955,501.767 821.621,513.1 819.5,524.5C 818.076,526.515 817.41,528.848 817.5,531.5C 780.458,656.335 702.124,744.835 582.5,797C 536.648,815.471 488.981,825.304 439.5,826.5C 424.151,826.671 408.817,826.337 393.5,825.5C 392.5,825.5 391.5,825.5 390.5,825.5C 386.081,824.028 381.414,823.362 376.5,823.5C 363.173,822.242 350.173,819.909 337.5,816.5C 335.485,815.076 333.152,814.41 330.5,814.5C 216.473,783.98 130.973,716.98 74,613.5C 53.9597,574.717 40.1263,533.717 32.5,490.5C 32.6382,485.586 31.9715,480.919 30.5,476.5C 29.5787,442.278 44.912,418.778 76.5,406C 81.0633,404.525 85.7299,403.692 90.5,403.5C 147.843,404.163 204.843,403.496 261.5,401.5C 273.378,377.647 289.711,357.147 310.5,340C 360.948,299.275 417.614,270.442 480.5,253.5C 483.152,253.59 485.485,252.924 487.5,251.5C 491.476,250.705 495.476,250.038 499.5,249.5C 504.1,249.72 508.433,249.054 512.5,247.5C 517.285,246.888 522.118,246.554 527,246.5C 537.531,247.003 548.031,247.503 558.5,248C 626.5,180 694.5,112 762.5,44C 769.238,39.6931 776.238,39.3597 783.5,43C 796.36,55.8604 809.194,68.6937 822,81.5C 824.198,87.3168 823.865,92.9835 821,98.5C 752.621,168.212 683.955,236.879 615,304.5C 614.982,306.797 615.149,309.131 615.5,311.5 Z"/></g>
<g><path style="opacity:1" fill="#414141" d="M 512.5,247.5 C 508.433,249.054 504.1,249.72 499.5,249.5C 503.567,247.946 507.9,247.28 512.5,247.5 Z"/></g>
<g><path style="opacity:1" fill="#5e5e5e" d="M 487.5,251.5 C 485.485,252.924 483.152,253.59 480.5,253.5C 482.515,252.076 484.848,251.41 487.5,251.5 Z"/></g>
<g><path style="opacity:1" fill="#f0f0f0" d="M 331.5,402.5 C 321.652,402.827 311.986,402.494 302.5,401.5C 310.846,389.645 320.513,378.811 331.5,369C 374.917,334.124 423.25,308.458 476.5,292C 423.149,322.176 374.816,359.009 331.5,402.5 Z"/></g>
<g><path style="opacity:1" fill="#f0f0f0" d="M 435.5,402.5 C 417.992,402.83 400.659,402.497 383.5,401.5C 419.848,370.331 458.848,342.831 500.5,319C 511.653,312.252 523.319,306.919 535.5,303C 502.191,336.477 468.857,369.643 435.5,402.5 Z"/></g>
<g><path style="opacity:1" fill="#f1f1f1" d="M 559.5,328.5 C 560.043,328.56 560.376,328.893 560.5,329.5C 549.224,354.726 535.891,378.726 520.5,401.5C 509.181,402.666 497.848,402.832 486.5,402C 511.035,377.632 535.368,353.132 559.5,328.5 Z"/></g>
<g><path style="opacity:1" fill="#9c9c9c" d="M 615.5,311.5 C 617.001,318.27 617.667,325.27 617.5,332.5C 617.499,337.346 617.166,342.012 616.5,346.5C 616.635,334.815 616.302,323.148 615.5,311.5 Z"/></g>
<g><path style="opacity:1" fill="#d0d0d0" d="M 570.5,387.5 C 571.097,387.735 571.43,388.235 571.5,389C 569.466,393.303 568.133,397.803 567.5,402.5C 565.712,402.785 564.045,402.452 562.5,401.5C 565.696,397.104 568.363,392.437 570.5,387.5 Z"/></g>
<g><path style="opacity:1" fill="#555555" d="M 261.5,401.5 C 204.843,403.496 147.843,404.163 90.5,403.5C 147.402,402.829 204.402,402.163 261.5,401.5 Z"/></g>
<g><path style="opacity:1" fill="#515151" d="M 302.5,401.5 C 311.986,402.494 321.652,402.827 331.5,402.5C 321.659,403.823 311.659,403.823 301.5,402.5C 301.624,401.893 301.957,401.56 302.5,401.5 Z"/></g>
<g><path style="opacity:1" fill="#535353" d="M 383.5,401.5 C 400.659,402.497 417.992,402.83 435.5,402.5C 417.995,403.827 400.329,403.827 382.5,402.5C 382.624,401.893 382.957,401.56 383.5,401.5 Z"/></g>
<g><path style="opacity:1" fill="#b8b8b8" d="M 244.5,452.5 C 244.5,451.167 244.5,449.833 244.5,448.5C 192.81,448.184 141.144,448.518 89.5,449.5C 89.9175,448.778 90.5842,448.278 91.5,448C 142.832,447.5 194.166,447.333 245.5,447.5C 245.784,449.415 245.451,451.081 244.5,452.5 Z"/></g>
<g><path style="opacity:1" fill="#b8b8b8" d="M 765.5,448.5 C 705.762,448.171 646.095,448.504 586.5,449.5C 615.992,448.167 645.826,447.5 676,447.5C 706.002,447.5 735.835,447.833 765.5,448.5 Z"/></g>
<g><path style="opacity:1" fill="#f5f5f5" d="M 244.5,452.5 C 237.641,504.889 252.974,549.389 290.5,586C 311.152,603.324 334.819,614.158 361.5,618.5C 368.097,620.03 374.93,620.697 382,620.5C 387.012,620.499 391.845,620.166 396.5,619.5C 446.706,614.981 488.206,593.648 521,555.5C 547.133,522.918 568.966,487.584 586.5,449.5C 646.095,448.504 705.762,448.171 765.5,448.5C 773.686,450.182 779.519,454.849 783,462.5C 783.667,468.5 783.667,474.5 783,480.5C 777.893,507.513 770.56,533.847 761,559.5C 758.163,565.351 755.33,571.184 752.5,577C 702.038,601.025 652.372,626.358 603.5,653C 563.479,673.004 521.146,681.171 476.5,677.5C 472.081,676.028 467.414,675.362 462.5,675.5C 431.474,669.825 401.807,659.992 373.5,646C 360.833,638.667 348.167,631.333 335.5,624C 314.167,609 292.833,594 271.5,579C 232.944,555.439 191.277,540.272 146.5,533.5C 143.155,531.783 139.489,531.116 135.5,531.5C 135.167,531.5 134.833,531.5 134.5,531.5C 129.402,530.043 124.069,529.376 118.5,529.5C 108.155,529.291 97.8221,528.791 87.5,528C 86.2021,525.273 85.2021,522.44 84.5,519.5C 84.5905,516.848 83.9238,514.515 82.5,512.5C 78.1788,496.074 76.0121,479.407 76,462.5C 78.4106,455.921 82.9106,451.588 89.5,449.5C 141.144,448.518 192.81,448.184 244.5,448.5C 244.5,449.833 244.5,451.167 244.5,452.5 Z"/></g>
<g><path style="opacity:1" fill="#ebebeb" d="M 280.5,476.5 C 279.517,472.702 279.183,468.702 279.5,464.5C 280.006,458.812 280.672,453.145 281.5,447.5C 286.214,447.173 290.88,447.507 295.5,448.5C 289.457,457.251 284.457,466.585 280.5,476.5 Z"/></g>
<g><path style="opacity:1" fill="#f4f4f4" d="M 339.5,447.5 C 356.17,447.333 372.837,447.5 389.5,448C 360.694,476.806 331.86,505.64 303,534.5C 302.165,522.352 304.165,510.685 309,499.5C 316.881,480.724 327.048,463.391 339.5,447.5 Z"/></g>
<g><path style="opacity:1" fill="#f4f4f4" d="M 440.5,447.5 C 456.17,447.333 471.837,447.5 487.5,448C 468.991,472.515 448.324,495.182 425.5,516C 404.452,534.03 380.785,547.696 354.5,557C 346,559.628 337.333,560.628 328.5,560C 366.035,522.632 403.368,485.132 440.5,447.5 Z"/></g>
<g><path style="opacity:1" fill="#f1f1f1" d="M 400.5,583.5 C 395.968,583.818 391.634,583.485 387.5,582.5C 411.866,570.656 434.2,555.822 454.5,538C 483.246,510.42 508.913,480.42 531.5,448C 536.833,447.333 542.167,447.333 547.5,448C 529.909,484.572 507.243,517.572 479.5,547C 456.766,566.754 430.433,578.921 400.5,583.5 Z"/></g>
<g><path style="opacity:1" fill="#8f8f8f" d="M 279.5,464.5 C 279.183,468.702 279.517,472.702 280.5,476.5C 280.217,477.289 279.717,477.956 279,478.5C 278.185,473.648 278.352,468.981 279.5,464.5 Z"/></g>
<g><path style="opacity:1" fill="#8e8e8e" d="M 30.5,476.5 C 31.9715,480.919 32.6382,485.586 32.5,490.5C 31.0285,486.081 30.3618,481.414 30.5,476.5 Z"/></g>
<g><path style="opacity:1" fill="#909090" d="M 828.5,476.5 C 828.638,481.414 827.972,486.081 826.5,490.5C 826.362,485.586 827.028,480.919 828.5,476.5 Z"/></g>
<g><path style="opacity:1" fill="#4e4e4e" d="M 82.5,512.5 C 83.9238,514.515 84.5905,516.848 84.5,519.5C 83.0762,517.485 82.4095,515.152 82.5,512.5 Z"/></g>
<g><path style="opacity:1" fill="#a0a0a0" d="M 118.5,529.5 C 124.069,529.376 129.402,530.043 134.5,531.5C 128.949,531.473 123.616,530.806 118.5,529.5 Z"/></g>
<g><path style="opacity:1" fill="#989898" d="M 819.5,524.5 C 819.59,527.152 818.924,529.485 817.5,531.5C 817.41,528.848 818.076,526.515 819.5,524.5 Z"/></g>
<g><path style="opacity:1" fill="#9b9b9b" d="M 135.5,531.5 C 139.489,531.116 143.155,531.783 146.5,533.5C 142.613,533.354 138.946,532.687 135.5,531.5 Z"/></g>
<g><path style="opacity:1" fill="#909090" d="M 387.5,582.5 C 391.634,583.485 395.968,583.818 400.5,583.5C 395.35,584.651 390.016,584.817 384.5,584C 385.527,583.487 386.527,582.987 387.5,582.5 Z"/></g>
<g><path style="opacity:1" fill="#606060" d="M 361.5,618.5 C 373.148,619.302 384.815,619.635 396.5,619.5C 391.845,620.166 387.012,620.499 382,620.5C 374.93,620.697 368.097,620.03 361.5,618.5 Z"/></g>
<g><path style="opacity:1" fill="#757575" d="M 462.5,675.5 C 467.414,675.362 472.081,676.028 476.5,677.5C 471.586,677.638 466.919,676.972 462.5,675.5 Z"/></g>
<g><path style="opacity:1" fill="#565656" d="M 330.5,814.5 C 333.152,814.41 335.485,815.076 337.5,816.5C 334.848,816.59 332.515,815.924 330.5,814.5 Z"/></g>
<g><path style="opacity:1" fill="#6b6b6b" d="M 376.5,823.5 C 381.414,823.362 386.081,824.028 390.5,825.5C 385.586,825.638 380.919,824.972 376.5,823.5 Z"/></g>
<g><path style="opacity:1" fill="#969696" d="M 393.5,825.5 C 408.817,826.337 424.151,826.671 439.5,826.5C 433.342,827.166 427.009,827.5 420.5,827.5C 411.281,827.695 402.281,827.028 393.5,825.5 Z"/></g>
</svg>
